<svg version="1.2" xmlns="http://www.w3.org/2000/svg" viewBox="0 0 64 64" width="256" height="256">
	<title>btc_close-svg</title>
	<style>
		.s0 { fill: #f7931a } 
		.s1 { fill: #000000 } 
	</style>
	<g>
		<path class="s0" d="m63 39.7c-4.2 17.2-21.6 27.6-38.7 23.3-17.2-4.2-27.6-21.6-23.3-38.7 4.2-17.2 21.6-27.6 38.7-23.3 17.2 4.2 27.6 21.6 23.3 38.7z"/>
		<path id="X" class="s1" aria-label="X"  d="m25.7 32.4v-0.5l-8.8-10.2q-0.8-0.9-1.4-1.8-0.5-0.7-1-1.5-0.4-0.8-0.4-1.4 0-0.7 0.5-1.5 0.6-0.7 1.9-1.3 1.6-0.7 2.9-0.7 1 0 1.8 0.4 0.8 0.3 1.5 0.9 0.7 0.5 1.3 1.2 0.5 0.7 1.1 1.4l6.5 8.2h1l6.5-8.2q0.6-0.7 1.1-1.4 0.6-0.7 1.3-1.2 0.7-0.6 1.5-0.9 0.8-0.4 1.8-0.4 0.6 0 1.3 0.2 0.8 0.2 1.6 0.5 1.4 0.7 2 1.4 0.5 0.7 0.5 1.4 0 0.6-0.4 1.4-0.5 0.8-1 1.5-0.7 0.9-1.5 1.8l-8.7 10.2v0.5l9.7 11.7q0.7 0.9 1.2 1.8 0.6 0.8 0.6 1.7 0 0.7-0.5 1.4-0.5 0.7-1.9 1.4-1.5 0.6-2.8 0.6-0.9 0-1.7-0.3-0.7-0.3-1.3-0.7-0.6-0.5-1.2-1.1-0.5-0.5-1-1.2l-7.1-8.7h-1l-7.1 8.7q-0.5 0.7-1 1.2-0.6 0.6-1.2 1.1-0.6 0.4-1.3 0.7-0.7 0.3-1.6 0.3-1.3 0-2.8-0.6-1.4-0.7-2-1.4-0.5-0.7-0.5-1.4 0-0.9 0.5-1.7 0.6-0.9 1.3-1.8z"/>
	</g>
</svg>