<?xml version="1.0" encoding="UTF-8" standalone="no"?>
<!-- Created with Inkscape (http://www.inkscape.org/) -->

<svg
   width="500"
   height="500"
   viewBox="0 0 132.29167 132.29167"
   version="1.1"
   id="svg1"
   xml:space="preserve"
   inkscape:version="1.3.2 (091e20ef0f, 2023-11-25)"
   sodipodi:docname="greenleaf.svg"
   xmlns:inkscape="http://www.inkscape.org/namespaces/inkscape"
   xmlns:sodipodi="http://sodipodi.sourceforge.net/DTD/sodipodi-0.dtd"
   xmlns="http://www.w3.org/2000/svg"
   xmlns:svg="http://www.w3.org/2000/svg"><sodipodi:namedview
     id="namedview1"
     pagecolor="#ffffff"
     bordercolor="#000000"
     borderopacity="0.25"
     inkscape:showpageshadow="2"
     inkscape:pageopacity="0.0"
     inkscape:pagecheckerboard="0"
     inkscape:deskcolor="#d1d1d1"
     inkscape:document-units="mm"
     inkscape:zoom="1.0449705"
     inkscape:cx="238.28423"
     inkscape:cy="187.08661"
     inkscape:window-width="2560"
     inkscape:window-height="1371"
     inkscape:window-x="0"
     inkscape:window-y="32"
     inkscape:window-maximized="1"
     inkscape:current-layer="layer1" /><defs
     id="defs1" /><g
     inkscape:label="Layer 1"
     inkscape:groupmode="layer"
     id="layer1"><path
       style="fill:#008000;stroke-width:0.417853"
       d="m 63.874321,110.55731 c 0.03814,-0.16722 0.143128,-0.72691 0.233271,-1.24377 0.09014,-0.51685 0.239314,-1.36261 0.331495,-1.87947 0.171877,-0.96366 0.264991,-1.58486 0.555162,-3.70366 0.189405,-1.38303 0.488772,-5.174312 0.492405,-6.235974 0.0024,-0.696572 -0.0014,-0.704915 -0.214471,-0.511834 -0.119286,0.107957 -0.322653,0.401734 -0.451924,0.652838 -0.305934,0.594281 -1.614514,2.55844 -2.035093,3.05465 -0.771804,0.91059 -2.84071,2.88821 -3.708404,3.54478 -1.889154,1.42948 -4.451549,2.90882 -6.315599,3.64617 -0.281244,0.11125 -0.729,0.29814 -0.995014,0.4153 -0.266013,0.11717 -0.695103,0.29447 -0.953529,0.394 -0.632864,0.24376 -1.36097,0.52108 -1.630719,0.62112 -0.374577,0.13891 -1.006835,0.33376 -1.083043,0.33376 -0.339081,0 1.799904,-3.17856 3.831529,-5.6937 2.005012,-2.48219 4.441913,-4.576508 6.929208,-5.955084 0.536533,-0.297372 0.660058,-0.408629 0.515347,-0.464162 -0.104685,-0.04014 -0.32654,-0.04605 -0.493013,-0.01305 -2.569194,0.509191 -6.122286,0.847467 -8.870848,0.844562 -2.512984,-0.0024 -7.165521,-0.415333 -8.568176,-0.759991 -0.243224,-0.05977 -0.889986,-0.187609 -1.43724,-0.28409 -0.547259,-0.09648 -1.194017,-0.22041 -1.437246,-0.275391 -1.023891,-0.231464 -2.008363,-0.473874 -2.266421,-0.558074 -0.152015,-0.0496 -0.574895,-0.176376 -0.939732,-0.281724 -4.59293,-1.326172 -11.647752,-4.338668 -17.578578,-7.506264 -1.553266,-0.829581 -1.758641,-0.965743 -1.587522,-1.052481 0.310348,-0.157305 3.264812,-0.694848 5.733411,-1.043152 0.638468,-0.09009 1.555402,-0.220991 2.03763,-0.290905 0.482232,-0.06991 1.278243,-0.167596 1.768916,-0.217086 5.38129,-0.5427 5.651232,-0.558529 9.626143,-0.564667 3.941024,-0.0061 4.490786,0.02671 7.738996,0.461572 3.171592,0.424614 7.462297,1.515743 10.392365,2.642791 1.485704,0.571471 1.437145,0.387209 -0.217171,-0.824134 -0.830425,-0.608067 -1.643664,-1.212943 -1.807196,-1.344181 -0.163531,-0.131233 -0.993839,-0.78401 -1.845128,-1.450605 -4.33585,-3.395182 -9.251141,-8.034183 -10.920044,-10.306241 -1.870827,-2.546948 -4.143908,-6.159665 -5.66925,-9.010396 -0.260289,-0.486449 -0.700293,-1.307335 -0.977794,-1.82419 -0.836012,-1.557116 -3.825712,-7.651034 -3.825712,-7.797968 0,-0.02118 -0.199003,-0.467269 -0.442228,-0.99132 -0.243228,-0.524055 -0.442231,-0.971125 -0.442231,-0.993489 0,-0.02236 -0.167337,-0.404983 -0.371868,-0.850269 -0.204527,-0.44529 -0.607702,-1.381746 -0.895941,-2.08102 -0.499402,-1.211557 -0.733571,-1.775409 -0.941249,-2.266421 -0.05144,-0.121612 -0.248744,-0.619121 -0.438454,-1.105569 -0.189713,-0.486453 -0.394704,-0.973545 -0.455531,-1.082429 -0.264961,-0.474281 0.230438,-0.441032 0.931688,0.06253 0.188419,0.135301 0.427038,0.295749 0.530269,0.356555 0.212525,0.125189 3.587503,2.400598 4.847244,3.268012 1.814199,1.249194 4.69893,3.351157 6.363567,4.636821 1.570595,1.213033 2.811775,2.184188 3.097516,2.423635 0.187068,0.156757 0.533202,0.434266 0.769193,0.616685 0.637857,0.493071 1.762519,1.436772 2.760182,2.316074 4.26201,3.756367 7.652127,7.360859 10.351482,11.006061 2.182458,2.947182 4.387301,6.294997 5.570107,8.457617 0.166284,0.304033 0.34594,0.600047 0.399238,0.657809 0.187323,0.203034 0.09558,-0.4642 -0.243997,-1.774581 -1.894428,-7.310283 -2.491913,-13.617672 -2.046368,-21.602712 0.0967,-1.732985 0.223673,-3.499135 0.282177,-3.924778 0.491028,-3.572727 0.536842,-3.877167 0.831784,-5.527856 0.389159,-2.17797 0.739207,-3.860462 1.33411,-6.412313 0.155934,-0.66887 0.299902,-1.290754 0.31993,-1.381963 0.04732,-0.215469 0.580294,-2.247554 0.739425,-2.819206 0.0677,-0.243226 0.185519,-0.666107 0.261806,-0.939736 0.07629,-0.273628 0.192192,-0.696509 0.257561,-0.939735 0.327576,-1.218836 0.993685,-3.51979 1.232204,-4.256448 0.04922,-0.152016 0.301126,-0.948027 0.559794,-1.768914 0.442083,-1.402966 1.249688,-3.833477 2.176579,-6.550508 0.507372,-1.487262 0.646776,-1.531102 1.054667,-0.331671 1.097367,3.226853 2.09391,6.223686 2.398843,7.21385 0.196624,0.638468 0.406643,1.293443 0.466705,1.455501 0.06007,0.162058 0.151234,0.460562 0.202605,0.663343 0.05137,0.202781 0.225205,0.816448 0.386314,1.363705 0.390234,1.325593 0.839686,2.949603 1.392177,5.030348 0.482957,1.818848 0.546733,2.073646 0.802529,3.206156 0.08927,0.395241 0.242262,1.066876 0.339981,1.492522 0.201867,0.879272 0.730814,3.397475 0.801176,3.814222 0.02567,0.152014 0.119767,0.699273 0.209129,1.216125 0.317214,1.834891 0.370071,2.170081 0.540409,3.427272 0.09475,0.699274 0.221029,1.619659 0.28062,2.045306 0.407809,2.912895 0.542781,11.098856 0.235152,14.261866 -0.168681,1.734369 -0.589995,4.818913 -0.792795,5.804246 -0.05632,0.273629 -0.200377,0.995015 -0.320124,1.603077 -0.291919,1.48231 -0.486967,2.329477 -0.839991,3.648387 -0.341405,1.27549 -0.42741,1.752919 -0.352352,1.955981 0.034,0.09196 0.0984,0.044 0.176919,-0.13179 0.06791,-0.152019 0.171528,-0.35102 0.230262,-0.442229 0.05873,-0.09121 0.622766,-1.011596 1.253409,-2.045305 0.630639,-1.03371 1.514567,-2.42673 1.964282,-3.095596 0.8611,-1.280739 3.93602,-5.410721 4.498439,-6.04194 0.1815,-0.203708 0.718648,-0.818132 1.193658,-1.365391 1.239771,-1.428341 5.082048,-5.245855 6.572506,-6.530137 0.699267,-0.602545 1.296276,-1.12436 1.326681,-1.159594 0.103305,-0.119719 2.72691,-2.256317 3.936511,-3.205806 1.972943,-1.548674 5.759354,-4.36535 7.008647,-5.213659 0.15201,-0.103223 0.74902,-0.516748 1.32668,-0.918944 1.53628,-1.06963 5.83197,-3.918794 6.01327,-3.988363 0.28324,-0.108692 0.28649,0.139255 0.009,0.713736 -0.15051,0.311982 -0.27365,0.596733 -0.27365,0.632781 0,0.09971 -0.96113,2.508283 -1.27295,3.189999 -0.15117,0.330485 -0.27485,0.625815 -0.27485,0.656297 0,0.03046 -0.30368,0.742618 -0.67484,1.582525 -0.89231,2.019214 -1.0429,2.353756 -1.55832,3.46185 -0.24041,0.516855 -0.6916,1.486995 -1.00265,2.155861 -1.42523,3.064777 -4.598845,9.032261 -5.497441,10.337093 -0.10469,0.152014 -0.209876,0.331971 -0.233747,0.399905 -0.09655,0.274766 -1.775196,2.81271 -2.902887,4.388877 -1.425972,1.993077 -1.956081,2.611996 -3.622753,4.229725 -2.372615,2.302924 -4.07332,3.824315 -6.730835,6.021177 -1.080453,0.893167 -4.170258,3.24473 -5.342397,4.065954 -0.233257,0.163419 -0.556638,0.407495 -0.718624,0.54239 -0.282433,0.235201 -0.284685,0.245405 -0.05492,0.248758 0.131767,0.0019 0.455148,-0.08818 0.71862,-0.200215 0.558586,-0.237533 2.179843,-0.788062 3.1324,-1.063667 0.364843,-0.105557 0.812596,-0.235333 0.995015,-0.28839 0.182424,-0.05306 0.580429,-0.168381 0.884457,-0.256272 0.480015,-0.138766 2.074049,-0.503105 3.703663,-0.846519 2.914801,-0.614248 7.857436,-0.921776 12.219065,-0.760272 2.876514,0.10652 7.103614,0.460791 8.565674,0.717886 0.21282,0.03743 0.76008,0.110305 1.21613,0.161962 0.45604,0.05165 1.30181,0.173281 1.87947,0.270286 0.57766,0.097 1.37367,0.224081 1.76891,0.2824 0.39524,0.05831 0.9425,0.152195 1.21613,0.208619 0.27363,0.05642 0.82088,0.163348 1.21613,0.237605 1.01929,0.191514 1.09071,0.248119 0.64778,0.51341 -1.02328,0.612876 -5.28368,2.796129 -6.72842,3.447996 -0.45605,0.205767 -1.24284,0.568981 -1.74843,0.807143 -3.11086,1.465396 -7.610021,3.182729 -10.357579,3.953501 -0.486453,0.136467 -0.983958,0.286095 -1.105567,0.332514 -0.408872,0.156053 -1.685791,0.459148 -2.763929,0.656062 -0.364839,0.06663 -0.912096,0.170296 -1.216129,0.230362 -2.444315,0.482929 -3.283277,0.60372 -5.778235,0.831943 -3.873363,0.354315 -8.878326,0.08589 -12.76636,-0.684676 -0.166472,-0.033 -0.383405,-0.029 -0.482077,0.0089 -0.126433,0.04852 0.175119,0.283395 1.021296,0.795491 2.713234,1.642 4.366691,3.11931 6.695401,5.98212 1.093244,1.34398 1.32601,1.66311 2.627363,3.60216 0.973034,1.44984 1.11951,1.73737 0.885081,1.73737 -0.148166,0 -3.520391,-1.27542 -4.308472,-1.62951 -1.514701,-0.68059 -3.872335,-1.86556 -4.529706,-2.27669 -2.983053,-1.86565 -6.056111,-4.94631 -7.53055,-7.549155 -0.157252,-0.27761 -0.331381,-0.498891 -0.386947,-0.491733 -0.130477,0.01681 -0.106181,1.430119 0.04763,2.770848 0.22971,2.00229 0.366586,3.82339 0.4281,5.69582 0.0504,1.53401 0.02914,1.99409 -0.115186,2.4905 -0.391747,1.34756 -1.70251,2.20369 -3.376586,2.20543 -0.590467,4.1e-4 -0.592977,-9.6e-4 -0.523939,-0.30342 z"
       id="path1" /></g></svg>
