<svg version="1.2" xmlns="http://www.w3.org/2000/svg" viewBox="0 0 512 512" width="512" height="512">
	<title>greenleaf-svg</title>
	<style>
		.s0 { fill: #008000 } 
	</style>
	<g id="layer1">
		<path id="path1" class="s0" d="m245.9 425.6c0.1-0.6 0.5-2.8 0.9-4.8 0.3-2 0.9-5.2 1.3-7.2 0.6-3.7 1-6.1 2.1-14.3 0.7-5.3 1.9-19.9 1.9-24 0-2.7 0-2.7-0.8-2-0.5 0.5-1.3 1.6-1.8 2.6-1.1 2.2-6.2 9.8-7.8 11.7-3 3.5-10.9 11.1-14.3 13.7-7.2 5.5-17.1 11.2-24.3 14-1.1 0.4-2.8 1.1-3.8 1.6-1 0.5-2.7 1.1-3.7 1.5-2.4 1-5.2 2-6.3 2.4-1.4 0.5-3.8 1.3-4.1 1.3-1.3 0 6.9-12.2 14.7-21.9 7.7-9.6 17.1-17.6 26.7-23 2.1-1.1 2.5-1.5 2-1.7-0.4-0.2-1.3-0.2-1.9-0.1-9.9 2-23.6 3.3-34.2 3.3-9.7 0-27.6-1.6-33-3-0.9-0.2-3.4-0.7-5.5-1.1-2.1-0.3-4.6-0.8-5.5-1-4-0.9-7.8-1.8-8.8-2.2-0.5-0.2-2.2-0.6-3.6-1-17.6-5.2-44.8-16.8-67.6-28.9-6-3.2-6.8-3.8-6.2-4.1 1.2-0.6 12.6-2.7 22.1-4 2.5-0.4 6-0.9 7.9-1.1 1.8-0.3 4.9-0.7 6.8-0.9 20.7-2.1 21.7-2.1 37-2.1 15.2-0.1 17.3 0.1 29.8 1.7 12.2 1.7 28.8 5.9 40 10.2 5.7 2.2 5.6 1.5-0.8-3.2-3.2-2.3-6.3-4.6-7-5.1-0.6-0.5-3.8-3.1-7.1-5.6-16.7-13.1-35.6-31-42-39.7-7.2-9.8-16-23.7-21.8-34.7-1-1.9-2.7-5-3.8-7-3.2-6-14.7-29.5-14.7-30 0-0.1-0.8-1.8-1.7-3.8-1-2.1-1.7-3.8-1.7-3.9 0-0.1-0.7-1.5-1.5-3.2-0.7-1.8-2.3-5.4-3.4-8.1-1.9-4.6-2.8-6.8-3.6-8.7-0.2-0.4-1-2.4-1.7-4.2-0.7-1.9-1.5-3.8-1.8-4.2-1-1.8 0.9-1.7 3.6 0.2 0.7 0.6 1.7 1.2 2.1 1.4 0.8 0.5 13.8 9.3 18.6 12.6 7 4.8 18.1 12.9 24.5 17.8 6.1 4.7 10.8 8.5 11.9 9.4 0.8 0.6 2.1 1.6 3 2.3 2.5 1.9 6.8 5.6 10.6 9 16.4 14.4 29.5 28.3 39.9 42.3 8.4 11.4 16.9 24.3 21.4 32.6 0.7 1.2 1.3 2.3 1.6 2.5 0.7 0.8 0.3-1.8-1-6.8-7.3-28.1-9.6-52.4-7.9-83.2 0.4-6.6 0.9-13.4 1.1-15.1 1.9-13.7 2.1-14.9 3.2-21.3 1.5-8.3 2.9-14.8 5.2-24.6 0.6-2.6 1.1-5 1.2-5.4 0.2-0.8 2.2-8.6 2.8-10.8 0.3-1 0.8-2.6 1-3.6 0.3-1.1 0.8-2.7 1-3.7 1.3-4.6 3.9-13.5 4.8-16.3 0.2-0.6 1.1-3.7 2.1-6.8 1.7-5.4 4.8-14.8 8.4-25.3 2-5.7 2.5-5.9 4.1-1.2 4.2 12.4 8 23.9 9.2 27.7 0.8 2.5 1.6 5 1.8 5.6 0.2 0.7 0.6 1.8 0.8 2.6 0.2 0.8 0.9 3.1 1.5 5.2 1.5 5.1 3.2 11.4 5.3 19.4 1.9 7 2.1 8 3.1 12.3 0.4 1.6 1 4.2 1.3 5.8 0.8 3.4 2.8 13.1 3.1 14.7 0.1 0.6 0.5 2.7 0.8 4.7 1.2 7 1.4 8.3 2.1 13.1 0.4 2.7 0.9 6.3 1.1 7.9 1.6 11.2 2.1 42.7 0.9 54.9-0.7 6.7-2.3 18.6-3.1 22.4-0.2 1-0.7 3.8-1.2 6.1-1.1 5.7-1.9 9-3.2 14.1-1.3 4.9-1.7 6.7-1.4 7.5 0.1 0.4 0.4 0.2 0.7-0.5 0.3-0.6 0.7-1.3 0.9-1.7 0.2-0.3 2.4-3.9 4.8-7.9 2.4-3.9 5.8-9.3 7.6-11.9 3.3-4.9 15.1-20.8 17.3-23.2 0.7-0.8 2.8-3.2 4.6-5.3 4.8-5.5 19.5-20.2 25.3-25.1 2.7-2.4 5-4.4 5.1-4.5 0.4-0.5 10.5-8.7 15.1-12.3 7.6-6 22.2-16.8 27-20.1 0.6-0.4 2.9-2 5.1-3.6 5.9-4.1 22.5-15 23.2-15.3 1.1-0.4 1.1 0.5 0 2.7-0.6 1.2-1 2.3-1 2.5 0 0.4-3.7 9.6-4.9 12.3-0.6 1.2-1.1 2.4-1.1 2.5 0 0.1-1.2 2.8-2.6 6.1-3.4 7.7-4 9-6 13.3-0.9 2-2.7 5.7-3.9 8.3-5.4 11.8-17.7 34.8-21.1 39.8-0.4 0.6-0.8 1.3-0.9 1.5-0.4 1.1-6.9 10.9-11.2 16.9-5.5 7.7-7.5 10.1-13.9 16.3-9.2 8.9-15.7 14.7-25.9 23.2-4.2 3.4-16.1 12.5-20.6 15.6-0.9 0.7-2.2 1.6-2.8 2.1-1.1 0.9-1.1 1-0.2 1 0.5 0 1.8-0.3 2.8-0.8 2.1-0.9 8.4-3 12-4.1 1.4-0.4 3.2-0.9 3.9-1.1 0.7-0.2 2.2-0.6 3.4-1 1.8-0.5 8-1.9 14.2-3.2 11.2-2.4 30.3-3.6 47.1-3 11 0.5 27.3 1.8 32.9 2.8 0.9 0.2 3 0.4 4.7 0.6 1.8 0.2 5 0.7 7.3 1.1 2.2 0.3 5.2 0.8 6.8 1.1 1.5 0.2 3.6 0.5 4.6 0.8 1.1 0.2 3.2 0.6 4.7 0.9 4 0.7 4.2 0.9 2.5 2-3.9 2.3-20.3 10.7-25.9 13.2-1.7 0.8-4.8 2.2-6.7 3.1-12 5.7-29.3 12.3-39.9 15.3-1.9 0.5-3.8 1.1-4.2 1.2-1.6 0.6-6.5 1.8-10.7 2.6-1.4 0.2-3.5 0.6-4.7 0.8-9.4 1.9-12.6 2.4-22.2 3.2-14.9 1.4-34.2 0.4-49.2-2.6-0.6-0.1-1.4-0.1-1.8 0-0.5 0.2 0.7 1.1 3.9 3.1 10.5 6.3 16.8 12 25.8 23 4.2 5.2 5.1 6.4 10.1 13.9 3.8 5.6 4.3 6.7 3.4 6.7-0.5 0-13.5-4.9-16.6-6.3-5.8-2.6-14.9-7.2-17.4-8.7-11.5-7.2-23.3-19.1-29-29.1-0.6-1.1-1.3-1.9-1.5-1.9-0.5 0.1-0.4 5.5 0.2 10.7 0.9 7.7 1.4 14.7 1.6 21.9 0.2 5.9 0.2 7.7-0.4 9.6-1.5 5.2-6.5 8.5-13 8.5-2.3 0-2.3 0-2-1.2z"/>
	</g>
</svg>